# xmcd
#
# Track frame offsets:
#	150
#	20670
#	38030
#	57166
#	80437
#	101198
#	119463
#	136981
#	161479
#	192818
#	212555
#	229225
#	244042
#
# Disc length: 3489 seconds
#
# Revision: 0
# Processed by: cddbd v1.4PL0 Copyright (c) Steve Scherf et al.
# Submitted via: audiograbber 1.81.03
#
DISCID=ad0d9f0d
DTITLE=Savoy Brown - Bring It On Home
DYEAR=1994
DGENRE=Rock
TTITLE0=Mr. Brown's Boogie
TTITLE1=Sweet Loving Thing
TTITLE2=Too Much Of A Good Thing
TTITLE3=Misery
TTITLE4=Shake For Me
TTITLE5=Pack It Up
TTITLE6=High On Your Love
TTITLE7=Worried Man
TTITLE8=Little Wheel
TTITLE9=You're In For A Big Surprise
TTITLE10=Real Fine Woman
TTITLE11=That's What Love Will Do
TTITLE12=Baby Please
EXTD=
EXTT0=
EXTT1=
EXTT2=
EXTT3=
EXTT4=
EXTT5=
EXTT6=
EXTT7=
EXTT8=
EXTT9=
EXTT10=
EXTT11=
EXTT12=
PLAYORDER=
